<svg xmlns="http://www.w3.org/2000/svg" width="21" height="22"><path d="M19.25 2.025h-2.845V.648c0-.38-.294-.7-.656-.7s-.656.308-.656.7v1.377h-3.938V.648c0-.38-.294-.7-.655-.7s-.657.308-.657.7v1.377H5.906V.648c0-.38-.294-.7-.656-.7s-.657.308-.657.7v1.377H1.75C.784 2.025 0 2.847 0 3.862v16.302C0 21.18.784 22 1.75 22h17.5c.966 0 1.75-.82 1.75-1.836V3.862c0-1.015-.783-1.837-1.75-1.837zm.437 18.14a.448.448 0 0 1-.437.459H1.75a.45.45 0 0 1-.438-.459V3.862a.45.45 0 0 1 .438-.459h2.844V4.78c0 .38.294.7.657.7s.656-.308.656-.7V3.403h3.938V4.78c0 .38.294.7.657.7s.655-.308.655-.7V3.403h3.938V4.78c0 .38.293.7.656.7s.656-.308.656-.7V3.403h2.845a.45.45 0 0 1 .437.46v16.302zM4.594 8.225H7.22v2.066H4.594zm0 3.443H7.22v2.067H4.594zm0 3.444H7.22v2.066H4.594zm4.594 0h2.625v2.066H9.188zm0-3.444h2.625v2.067H9.188zm0-3.443h2.625v2.066H9.188zm4.593 6.887h2.625v2.066H13.78zm0-3.444h2.625v2.067H13.78zm0-3.443h2.625v2.066H13.78z"/></svg>