<svg xmlns="http://www.w3.org/2000/svg" width="74" height="70" fill="#81b3d2"><path d="M69.854 46.7H4.05c-2.274 0-4.135 1.94-4.135 4.313v3.504c0 2.372 1.86 4.313 4.135 4.313h.93v1.053c0 5.536 4.34 10.065 9.648 10.065h44.646c5.306 0 9.648-4.53 9.648-10.065V58.84h.93c2.274 0 4.135-1.94 4.135-4.313v-3.504c0-2.373-1.86-4.313-4.134-4.313zm-3.848 13.184c0 3.87-3.02 7.02-6.73 7.02H14.63c-3.7 0-6.73-3.15-6.73-7.02V58.84h58.107v1.053zm5.065-5.367c0 .688-.558 1.27-1.218 1.27H4.05c-.66 0-1.217-.582-1.217-1.27v-3.504c0-.688.558-1.27 1.217-1.27h65.802c.66 0 1.218.582 1.218 1.27v3.504zm-55.437-16.1l5.323 4.06 5.326-4.06 5.328 4.06 5.328-4.06 5.328 4.06 5.33-4.06 5.327 4.06 5.33-4.06 5.336 4.06 6.194-4.712-1.72-2.46-4.474 3.403-5.336-4.057-5.33 4.056-5.327-4.057-5.33 4.057-5.328-4.057-5.328 4.057-5.328-4.057-5.325 4.057-5.323-4.057-5.327 4.057-4.467-3.4-1.72 2.457 6.188 4.714zm-7.656-6.863h60.877l.07-1.87-.032-1.173C68.227 12.657 54.186 0 36.952 0S5.677 12.657 5.013 28.5l-.032 1.173c0 .63.028 1.25.07 1.87h2.927zm28.974-28.5c15.6 0 28.35 11.316 29.02 25.458H7.93c.674-14.142 13.43-25.46 29.022-25.46z"/><ellipse cx="36.952" cy="15.26" rx="1.945" ry="2.03"/><ellipse cx="29.172" cy="10.23" rx="1.946" ry="2.03"/><ellipse cx="44.732" cy="10.23" rx="1.946" ry="2.03"/></svg>