<svg xmlns="http://www.w3.org/2000/svg" width="75" height="72" fill="#81b3d2"><path d="M29.656 65.033h16V41.2h-16v23.823zm2.937-20.9h10.125V62.1H32.593V44.134zm40.177-4.88l2.076-2.068-9.908-9.865V0h-13.8v13.567L37.5 0 .152 37.185l2.077 2.068 7.832-7.795v37.618H6.124V72H70v-2.924h-5.06V31.458l7.83 7.795zM62 69.076H13V28.534L37.5 4.15l24.502 24.385v40.542zm0-44.682l-7.938-7.902V2.924H62v21.47zM29.906 27.08c0 4.26 3.47 7.713 7.75 7.713s7.75-3.452 7.75-7.713-3.47-7.713-7.75-7.713-7.75 3.454-7.75 7.713zm7.75-4.945c2.744 0 4.97 2.214 4.97 4.945a4.96 4.96 0 1 1-9.939 0c0-2.73 2.225-4.945 4.97-4.945zM17.06 41.2h3v3.92h-3zm5.94 0h3v3.92h-3zm-5.94 5.982h3v3.92h-3zm5.94 0h3v3.92h-3zM48.998 41.2h3v3.92h-3zm5.938 0h3v3.92h-3zm-5.938 5.982h3v3.92h-3zm5.938 0h3v3.92h-3z"/></svg>