<svg xmlns="http://www.w3.org/2000/svg" width="140" height="72" viewBox="0 0 138 70"><path d="M138 0H0l59.5 65.68c5.22 5.76 13.76 5.76 18.98 0z" fill="#81b3d3"/><path d="M36.687.457l32.148 37.88 32.02-37.65z" fill="#23a9e1"/><path d="M61.1 14.72h17.32c-1.3-.8-4.355-4.582-6.043-3.176-.137.115-4.87-5.744-7.982-2.92-2.713 2.466-3.973-.323-7.048 1.63-3.505 2.318 2.026 3.684 3.753 4.467m26.73-3.478l-9.86.054c3.896-4.5 5.647-4.018 9.86-.054" fill="#fff"/><path d="M97.622 3.588V1.154h2.08zm-49.245 9.4l.1.083c.024-.024 2.327-2.5 5.983-4.964 3.367-2.26 8.592-4.944 14.383-4.912C74.6 3.233 79.9 5.927 83.34 8.182c3.665 2.4 6.027 4.84 6.132 4.95l-2.515 2.945c-4.488.616-7.702 3.945-12.077 3.217-2.205-.366-2.27-1.632-2.902-2.893-.484-.97-1.256-.846-2.263-1.24-.937-.366-1.48-1.128-3.35-.688-1.642.385-1.822 2.933-3.865 2.787-1.096-.08-1.175-1.62-2.755-3.596-4.1-4.915-7.892-4.235-10.547.308l19.638 23.33zM40 1.153V3.06l-1.604-1.906zm53.876 0h3.227v3.03L93.887 7.96zM89.832 12.6V1.154h3.546v7.404l-3.5 4.098a.966.966 0 0 0-.046-.046m-.508-10.4v9.894a41.051 41.051 0 0 0-3.557-2.986zm-4.165-.358v6.82a41.53 41.53 0 0 0-1.465-1.012c-.664-.438-1.4-.892-2.194-1.34zm-4.312-.133v4.24a32.83 32.83 0 0 0-3.12-1.474zm.508-.576h3.727l-3.727 4.55zm4.312 0H89.3l-3.634 7.06zm-8.797 0h3.86l-3.53 3.13-.33-.122V1.154zm-.5.417v2.403a25.927 25.927 0 0 0-3.1-.887zm-4.203.042v1.26a21.458 21.458 0 0 0-2.179-.252zm-6.766-.04l2.248 1.042c-.762.043-1.512.13-2.248.253zm-4.12-.003l3.065 1.498a25.2 25.2 0 0 0-3.066.875zm3.6 1.2l-3.304-1.617h3.305zm3.566-.342l-2.754-1.275h2.754zm.6-1.275h2.88l-2.88 1.334zm3.76 0h3.24l-3.24 1.584zm-12.4 3.1l-3.5-3.1h3.87V4.13l-.36.135M56.79 1.738l3.093 2.74a31.493 31.493 0 0 0-3.093 1.489zm-4.312.128l3.64 4.48a35.89 35.89 0 0 0-3.64 2.41zm-4.165.358l3.586 6.974a37.772 37.772 0 0 0-3.586 3.151zm3.656 6l-3.634-7.07h3.634zM56.28 5.74l-3.726-4.585h3.726zM43.75 7.497l-3.23-3.833v-2.5h3.227zm.508-6.343H47.8v11.16l-3.546-4.212zm24.8-1.153H36v14.582L68.836 54.52l.22-.275L102 15.04V0z" fill="#491213"/><path d="M66.227 46.026l2.6-4.22 2.598 4.22-2.598 4.23z" fill="#23a9e1"/><path d="M74.218 30.556c-3.433-2.02-2.564-3.523.23-4.925 1.462-.734 4.754-3.38 6.133-2.5l-6.363 7.424m-2.334 2.517c-2.046-.095-4.33-.365-6.262.055 1.207.302 4.15 1.165 1.4 1.894.983 1.407 2.578 1.317 3.624.082-.425-.2-.655-.466-1.007-.686 1.085-.196 2.1-.822 2.235-1.345M73.12 31.5c-.933-.796-1.877-.84-2.746 0-1.165-2.137-5.4-1.42-7.38-1.72 1.065 2.614 9.65 3.102 10.124 1.72m-6.773-2.15c-1.565-.485-6.84-.364-3.388-1.794 1.065-.44 6.593.063 3.388 1.794m1.912-3.03c-.477-1.077.365-2.36 1.74-1.428 1.2.813-.552 2.017-1.74 1.428m-2.836.1c-2.265.68-5.273-.784-1.63-1.52 2.26-.456 4.666.506 1.63 1.52.1-.027-.084.028 0 0m-2.665-6.234c-.545 1.624-1.533 1.927-1.423-.045.126-2.274 1.6-1.73 3.2-2.6 1.324-.726 2.038-3.385 4.3-1.795 1.014.7 2.176.116 2.5 1.2-.016-.054-2.95 6.692-1.318 6.692-3.22 0-1.8-3.845-.568-6.426-1.198.574-3.143 4.34-1.546 4.96-.83 1.095-3.372 2.56-4.696 1.492-1.006-.8-.447-2.158-.46-3.47m-3.963 2.8c-5.596-.046-1.813-8.648.1-8.128 2.2.696 1.944 8.194-.1 8.128m-6.17-8.146c-2.624-.1-1.526-2.567.257-3.12 1.695-.528 5.25 1.114 6.4 2.205-1.808.555-4.146.476-6.134.568-.146-2.026-.62-1.32-.512.348" fill="#dc6243"/><path d="M71.774 25.832c-2.908-2.987 4.342-2.712 5.5-3.763.85.284 7-5.377 8.485-5.025-1.074 1.26-3.388 5.282-5.047 5.282-1.275 0-2.565-.2-3.552.718-1.444 1.33-3.837 2.006-5.396 2.788" fill="#f49774"/><path d="M72.727 22.18c-1.592.856-3.098-2.536-.35-2.206 1.826.22 3.676-.154 5.42.147-1.25 1.487-3.056 2.306-5.07 2.06" fill="#f4b1a4"/><path d="M51.113 20.935c.333.4.578.834.523 1.374-.038.375-.607 1.006-.175 1.198l1.455-1.84c-.4-.098-3.482-3.796-3.532-4.2l-2.05 1.126c.106.43.84.003 1.203.03.538.038.926.363 1.268.747l-4.138 3.305c-.146.023-.706-.4-.714-.037-.004.17.553.66.66.786l1.447 1.722c.4-.183-.072-.475.133-.807.15-.243 3.18-2.77 3.922-3.403m-3.423-4.53c.287-.062.405.282.622-.036l-1.6-1.894c-.24-.287-.546-.595-.46.012.058.4-3.97 3.677-4.215 3.778-.3.128-.492-.27-.72.063l1.9 2.266c.22.22.135-.437.145-.38-.06-.333.342-.616.555-.797l3.753-3.012m-5.694-.595c-1.147.34-2.37-.107-2.73-1.326-.353-1.2.398-2.44 1.344-3.117.935-.67 2.33-.63 2.84.544.224.52.102 1.108-.06 1.625-.105.328-.388.65.035.836l1.676-2.133c-.684-.4-.985-1.092-1.493-1.684-.572-.696-1.34-1.35-2.26-1.483-1.864-.264-3.62 1.66-3.762 3.405-.1.946.242 1.85.808 2.597.487.645 1.213 1.054 1.58 1.788.17.062 1.756-.67 2.133-.815-.033-.072-.057-.178-.1-.237-.494.146 0 0 0 0M67.51 39.447c-.747-.5-2.613-3.044-2.97-3.468l-.213-.253c-.007-.01-.185.145-.16.124-.112.094.086.372-.034.56-.515.806-3.738 3.236-3.905 3.352-.36.25-.756-.103-.967.206l1.96 2.325c.3.05.096-.53.136-.65.08-.24 1.7-1.588 2.304-2.084.218-.183.447.276.577.468.212.315.307.65.193 1.02-.075.24-.465.597-.162.762l1.696-1.98c.164-.2-.367-.023-.304-.056-.24.124-.466.153-.7-.018-.063-.047-.707-.702-.643-.757.28-.235.623-.625.984-.714.56-.138 1.027.984 1.1 1.382.078.375.067.77-.05 1.136-.08.25-.316.452.012.604l1.383-1.896a.463.463 0 0 1-.258-.063c-.083-.056.1.045 0 0m-9.227-8.92a3.35 3.35 0 0 0-1.977.793c-1.43 1.203-1.616 3.275-.492 4.753 1.292 1.702 3.374 1.895 5.06.694 1.43-1.205 1.612-3.282.5-4.766-.758-1-1.932-1.54-3.1-1.474zm1.2 1.386c.95-.108 1.503.8 1.1 1.768-.42.98-1.43 2-2.424 2.38-1.18.465-2-.537-1.53-1.657.422-.984 1.43-1.983 2.426-2.38a1.68 1.68 0 0 1 .43-.11zm-2.783-4.63c.308.038.6.356.824.027l-1.447-1.712c-.386.174.03.356-.126.63s-1.662.507-2.062.578c.146-.418.58-1.698.752-1.84.353-.3.573.28.832-.092l-1.78-2.112c-.2-.238-.362-.667-.636-.44.024-.02.003.955-.058 1.125-.056.153-.608 2.36-1.25 2.9-.32.27-1.453 1.256-1.755 1.362-.35.122-.535-.4-.792-.025l1.617 1.92c.082.096.4.56.498.58.34.06.04-.58.074-.706.098-.28 1.623-1.765 2.27-1.856.948-.133 2.077-.455 3.04-.34.22.027-.23-.028 0 0m24.24 6.77c.124.42.194.865.14 1.305-.07.566-.636 1.898-1.4 1.52-.76-.373-1.425-1.122-2.07-1.657.52-.608.978-1.135 1.853-.84.24.08.446-.024.194-.17-.263-.153-2.022-1.276-2.117-1.17-.175.202.343.564.143.957-.148.3-.396.54-.605.8-.467-.394-1.248-.813-.685-1.464.352-.428.8-.76 1.36-.87.368-.075 1.195.252 1.302-.146L76.91 31.3c.115.52-2.173 2.937-2.68 3.548-.074.088-.427.395-.43.517-.006.278.403.062.427.054.315-.116 4.424 3.317 4.526 3.552.065.182-.144.373-.02.475-.006-.006.148.14.165.12.253-.304 2.936-3.88 3.5-4.036a239.664 239.664 0 0 1-1.537-2.372c-.383.168-.013.616.072.903m-4 4.352c-1.348-.87-3.633.83-3.976.994-.675.32-1.162-.353-.812-.975.304-.54.904-.8 1.5-.837.18-.01.875.128.946.017.084-.13.148-.142.028-.224l-1.667-1.126c-.115.685-.9 1.12-1.348 1.585-.534.555-.987 1.253-.987 2.05 0 .736.44 1.4 1.1 1.726.737.384 1.505.076 2.158-.33.407-.255.814-.556 1.25-.76.646-.303 1.495-.04 1.267.824-.183.696-.876 1.337-1.56 1.52-.4.106-.825.07-1.216-.06-.28-.1-.645-.476-.8-.072l2.26 1.647c.068-.493.34-.708.706-1.015.477-.42.933-.858 1.294-1.383.753-1.1 1-2.638-.132-3.58M94.542 10.35a.222.222 0 0 0-.088.072l-1.604 1.932c-.168.204-.35.296-.025.467.543-.272 3.518 4.768 3.252 5.492-.47.244-4.5-3.283-4.598-3.516-.033-.095.178-.662-.136-.613-.15.023-.484.583-.578.697l-.577.695c.216.315.336-.013.623.028.25.05 1.198.864 1.456 1.08l-1.905.074c-.586.073-.275-.43-.66-.605l-2.338 2.838c-.035.042-.03.02.03.072.215.177.068.1.37.004.328-.115 4.256 3.2 4.398 3.37.245.292-.1.633.268.793l1.168-1.418c.06-.072.1-.066.013-.13-.277-.228-.3.138-.65.1-.346-.057-2.855-2.186-3.828-2.992l5.322-.197c.195-.007.74.58.695.8-.052.244-.3.36.034.515l.945-1.125.148-.184a.478.478 0 0 0 .135-.172l.1-.137c.275-.314 1.17-1.303 1.062-1.396-.3-.26-.446.302-.844-.035-.226-.162-.793-1.16-.935-1.402-.172-.292.394-.583.625-.727.504-.313 2.107-.767 2.26.227.025.167-.177.357-.055.457.028.024.133.156.176.105l2.142-2.576c-.063-.053-.135-.147-.2-.176-.474.473-5.466-1.52-5.83-1.795-.166-.066-.192-.673-.372-.6zm-.225 2.553l2.287.96c-.23.064-.447.166-.648.293h-.002a3.71 3.71 0 0 0-.621.495L94.32 12.9zm-6.588 7.753c-1.107-.076-2.23.4-3.023 1.317-1.235 1.5-1.112 3.678.393 4.945 1.518 1.25 3.68.932 4.916-.55 1.232-1.496 1.147-3.68-.385-4.934a3.302 3.302 0 0 0-1.9-.778zm-1.45 1.56c.622.038 1.3.414 1.742.703.78.52 2.214 1.687 1.477 2.738.048-.058.083-.097-.05.07a.162.162 0 0 1-.018.018c-.8.84-2.18.063-2.924-.474s-2.022-1.668-1.207-2.664c.257-.314.607-.414.98-.4zm-3.127 4.28c-1.214-.067-2.403.496-3.3 1.576l-1.922 2.316c.228.332.495-.078.827.113.283.163 4.053 3.312 4.115 3.485.106.297-.165.356.094.568.1.093 2.944-3.405 3.203-4.02.448-1.14.1-2.387-.82-3.175.073.06.177.145-.042-.037-.7-.518-1.427-.787-2.156-.827zm-1.053 1.58a1.23 1.23 0 0 1 .266.037c1.422.363 3.384 2.115 2.13 3.628-.156.193-.03.035-.432.422-.198.2-4.18-3.034-4.02-3.2.475-.52 1.396-.904 2.057-.88z" fill="#fff"/></svg>