<svg xmlns="http://www.w3.org/2000/svg" width="64" height="76"><path fill-rule="evenodd" fill="#81b3d2" d="M61.097 22.5H36.312C50.125 15.6 51.23 11.25 50.72 8.815c-1.162-3.963-5.692-7.023-10.002-5.407-5.57 2.1-7.137 10.388-8.644 16.387C30.15 13.726 28.3 5.982 23.938 2.06 22.677.92 20.843-.205 18.175.03 14.15.386 8.373 5.412 10.717 11c2.25 5.378 9.687 8.777 14.578 11.5H2.88C1.295 22.5 0 23.792 0 25.37v11.322c0 1.578 1.295 2.87 2.88 2.87h.274V76h57.84V39.56h.103c1.586 0 2.88-1.3 2.88-2.87V25.37c0-1.578-1.294-2.87-2.88-2.87zM42.413 5.944c2.103-.3 4.982 1.3 5.255 3.2.393 2.756-3.4 5.255-5.086 6.42-2.523 1.744-4.928 2.643-7.287 4.055.884-3.7 2.55-13 7.118-13.685zM19.53 15.912c-2.225-1.485-6.544-4.43-6.44-7.77.112-3.595 5.743-6.57 8.814-3.886 3.856 3.37 5.713 11.105 7.12 16.557-3.25-1.54-6.328-2.788-9.493-4.9zm5.972 57.114H6.136V39.56h19.368v33.465zm0-36.502H3.046V25.538h22.457v10.986zm10.157 0v36.503h-7.174v-47.5h7.174v10.986zm22.35 36.502H38.644V39.56H58v33.465zm2.92-36.502H38.644V25.538H60.93v10.986z"/></svg>