<svg xmlns="http://www.w3.org/2000/svg" width="17" height="15"><path fill="#fff" d="M10.95.144c1.685-.496 2.984.27 3.577 1.18l2.01-.708a2.345 2.345 0 0 1-.857 1.768c.685.17 1.304-.49 1.304-.49-.17 1-1.006 1.788-1.563 2.024-.23 6.75-3.175 11.217-10.077 11.082H4.9c-.4 0-4.164-.46-4.898-1.887 2.27.196 3.893-.422 4.693-1.177-.96-.3-2.68-.477-2.98-2.95.35.106.564.228 1.2.12C1.705 8.247.374 7.53.448 5.33c.285.328 1.067.536 1.34.472C1.085 5.56-.182 2.442.894.85 2.712 2.704 4.63 4.456 8.046 4.623 8.254 2.33 9.183.793 10.95.144z"/></svg>