<svg xmlns="http://www.w3.org/2000/svg" viewBox="0 0 458 352"><path d="M152.3 56.094l-2.845 4.875h-2.73l-.87 1.435h2.757l-6.068 10.383c-1.278 2.2-.377 4.247 2.06 4.247 1.754 0 3.7-1.304 5.557-3.073-.006 3.802 5.34 4.545 8.6.46h.666c1.8 0 4.644-1.1 6.184-2.896-.2-.404-.722-.86-1.128-1.033l-.205.228c-1.364 1.463-3.047 2.178-4.558 2.207l2.845-4.846c1.828-3.127.145-6.08-2.7-6.08-2.322 0-4.12.916-5.862 3.9l-1.48 2.553-1.237 2.1-.156.176c-2.176 2.496-4.298 4.475-5.633 4.475-.667 0-1.045-.46-.348-1.635l6.476-11.158h2.465l.872-1.436h-2.5l2.846-4.873zm7.53 7.836c.984.1 1.45 1.295.422 3.037l-2.204 3.727h-.145c-.987 0-1.77.804-1.77 1.78a1.94 1.94 0 0 0 .291 1.004l-.03.056c-1.422 2.4-4.88 1.95-3.08-1.146l2.294-3.928 1.45-2.437c.927-1.556 2.005-2.162 2.77-2.092zm21.933-7.84l-2.845 4.877h-2.73l-.87 1.434h2.757l-6.07 10.383c-1.277 2.208-.376 4.246 2.062 4.246 1.223 0 2.538-.637 3.853-1.62l-.778 1.334h3.046l4.588-7.887c4.644-5.767 6.706-5.02 5.4-2.8l-3.92 6.74c-1.278 2.2-.377 4.248 2.06 4.248 1.796 0 3.788-1.37 5.693-3.205.146 1.857 1.667 3.205 4.1 3.205 3.423 0 6.82-2.64 9.316-5.508-.197-.403-.72-.86-1.126-1.033l-.203.226c-2.178 2.497-4.964 4.475-7.082 4.475-1.86 0-2.964-1.146-1.57-3.555l.3-.52c1.946.805 5.604.43 7.868-3.44l.437-.747c1.625-2.753.058-4.818-2.4-4.818-2.44 0-4.383 1.263-5.66 3.44l-2.93 4.965-.176.2c-2.177 2.494-4.295 4.472-5.63 4.472-.666 0-1.046-.46-.35-1.635l4.355-7.543c1.306-2.265.06-3.9-1.624-3.9-1.307 0-2.702.717-4.2 2.265l4.818-8.3h-3.02l-8.423 14.438-.17.2c-2.176 2.496-4.297 4.474-5.633 4.474-.667 0-1.044-.46-.346-1.635l6.472-11.158h2.467l.872-1.433h-2.496l2.845-4.875zm21.312 8.242c.97-.057 1.5.86.5 2.604l-.437.746c-1.45 2.438-3.397 2.38-4.53 1.978l1.946-3.357c.763-1.292 1.78-1.926 2.532-1.97zm44.318-5.463c-1.714 1.52-1.858 3.214-.783 4.6l.262.344c-1.335 1.865-3.135 4.387-5.1 6.684l.002.003-.203.23c-1.365 1.46-3.046 2.18-4.558 2.2l2.843-4.848c1.83-3.126.147-6.08-2.7-6.08-2.32 0-4.12.918-5.86 3.9l-1.484 2.553-1.238 2.092-.154.176c-2.497 2.84-4.643 4.67-7.025 5.676l6.763-11.414h-1.77c0-1.234-1.276-2.87-3.164-2.87-1.624 0-3.9 1.265-5.168 3.444l-4.238 7.227c-1.278 2.208-.378 4.246 2.06 4.246.843 0 1.86-.374 2.877-1.004l-.843 1.404c-4.064 1.233-6.62 2.868-6.62 5.106 0 2.87 4.442 3.47 6.62-.2l2.292-3.93c2.416-.743 4.783-2.147 7.24-4.464-.02 3.817 5.337 4.567 8.6.476h.668c1.8 0 4.645-1.1 6.184-2.896 1.45-1.664 2.58-3.155 5-6.395l.405.5c.377.487.525 1.1.175 1.7l-3.193 5.48c-1.28 2.2-.38 4.246 2.06 4.246 1.53 0 3.204-.995 4.842-2.422-.05 1.386.887 2.422 2.62 2.422.84 0 1.857-.373 2.874-1.004l-.842 1.402c-4.065 1.233-6.616 2.868-6.616 5.106 0 2.87 4.44 3.47 6.616-.2l2.292-3.93c2.46-.758 4.87-2.206 7.377-4.6.136 1.868 1.658 3.225 4.1 3.225 2.458 0 4.9-1.363 7.004-3.2-.117 3.905 5.3 4.703 8.612.578h.668c.945 0 2.175-.308 3.357-.853-.813 2.073-.066 3.465 1.66 3.465 1.656 0 3.513-1.492 4.964-2.868-.3 1.605.667 2.868 2.584 2.868 2.496 0 5.37-2.637 7.868-5.506l-.002-.002c1.712-1.952 3.223-4.043 4.298-5.448-1.2 3.096-.555 8.66-3.426 8.66-1.016 0-1.42-1.1-1.42-1.1l-1.9.975a3.28 3.28 0 0 0 3.31 2.412c.3 0 .552-.03.84-.06.03 0 .06-.027.1-.027 3.076-.4 6.124-2.8 8.388-5.42-.173-.46-.696-.918-1.13-1.034l-.203.23a18.852 18.852 0 0 1-3.63 3.24c.957-2.84.755-7.2 2.614-11.014l-2.264-1.205c-1.25 1.693-3.977 5.593-6.706 8.748v.002l-.203.23c-2.176 2.496-4.295 4.472-5.63 4.472-.667 0-1.045-.46-.347-1.634l6.444-11.158h-3.02l-5.37 9.265c-2.293 2.064-4.062 3.212-4.644 2.953-.754-.314 0-1.433.378-2.064l5.893-10.152h-3.02l-4.734 8.092-.2.226c-1.364 1.463-3.047 2.18-4.558 2.2l2.845-4.85c1.828-3.127.15-6.08-2.7-6.08-2.323 0-4.123.918-5.864 3.903l-1.482 2.55-1.237 2.1-.155.178c-2.176 2.496-4.964 4.473-7.083 4.473-1.858 0-2.96-1.146-1.567-3.555l.3-.518c1.944.804 5.604.43 7.867-3.443l.438-.746c1.623-2.754.058-4.82-2.4-4.82-2.44 0-4.387 1.265-5.663 3.444l-2.926 4.965-.175.197c-2.5 2.84-4.645 4.673-7.028 5.678l6.764-11.416h-1.772c0-1.234-1.277-2.868-3.164-2.868-1.625 0-3.9 1.263-5.167 3.442l-2.896 4.937-.008-.004-.203.23c-2.176 2.495-4.298 4.474-5.634 4.474-.667 0-1.042-.46-.346-1.635l3.018-5.22c1.045-1.807.55-2.87-.437-4.046l-1.683-2c-.435-.545-.435-1.146.175-1.72zM237.1 63.93c.984.1 1.45 1.296.424 3.038l-2.204 3.727h-.147c-.986 0-1.77.804-1.77 1.78a1.95 1.95 0 0 0 .29 1.004l-.028.056c-1.422 2.4-4.878 1.95-3.078-1.146l2.292-3.928 1.453-2.437c.928-1.556 2.004-2.162 2.768-2.092zm50.158 0c.984.1 1.453 1.296.426 3.038l-2.206 3.727h-.147c-.986 0-1.768.804-1.768 1.78 0 .37.116.716.3 1.004l-.03.056c-1.42 2.4-4.875 1.95-3.075-1.146l2.292-3.928 1.45-2.437c.927-1.556 2.003-2.162 2.768-2.092zm-11.7.405c.968-.057 1.497.86.485 2.602l-.435.746c-1.45 2.438-3.397 2.38-4.53 1.978l1.948-3.355c.762-1.292 1.78-1.926 2.532-1.97zm-52.403.2c1.023-.006 1.678.884.845 2.4l-2.292 3.96c-1.83 2.897-3.66 4.3-4.938 4.3-.667 0-1.045-.46-.35-1.634l4.212-7.256c.7-1.217 1.727-1.765 2.522-1.77zm38.923 0c1.023-.006 1.678.884.845 2.4l-2.292 3.96c-1.828 2.897-3.66 4.3-4.936 4.3-.667 0-1.043-.46-.35-1.634l4.2-7.256c.7-1.217 1.727-1.765 2.522-1.77zM216.75 79.443l-1.364 2.407c-.638 1.118-1.654.947-1.654.144 0-.774.727-1.662 3.018-2.55zm38.925 0l-1.362 2.407c-.64 1.118-1.656.947-1.656.144 0-.774.726-1.662 3.018-2.55zM101.025 67.83h28.922v1.95h-28.922zm227.03 0h28.922v1.95h-28.922z" fill="#766458"/><path d="M322.7 37.364V45.1h-20.816V.353H322.7v7.67h-13.2v10.803h10.535v7.67H309.5v10.867zm-32.792-37h7.55V45.1h-7.616v-22l-3.047 11.378h-7.425L276.4 23.1v22h-7.617V.354h7.552l6.8 21.605zM258 8.024h-5.523v29.34H258zm2.982-7.67c2.54 0 4.698 2.1 4.698 4.73V40.37c0 2.557-2.158 4.73-4.698 4.73h-11.424c-2.6 0-4.696-2.173-4.696-4.73V5.085c0-2.62 2.096-4.73 4.696-4.73zm-28 28.252l7.678-1.8v13.552c0 2.557-2.157 4.73-4.696 4.73H224.54c-2.6 0-4.695-2.173-4.695-4.73V5.084c0-2.622 2.095-4.73 4.695-4.73h11.423c2.54 0 4.697 2.108 4.697 4.73v9.077l-7.678 1.8V8.023h-5.522v29.34h5.522zm-16.8 8.758V45.1H197.97V.353h7.616v37zm-21.346 0V45.1H174.02V.353h20.816v7.67h-13.2v10.804h10.535v7.67h-10.535v10.866zm-32.26-37h7.677L169.037 45.1h-14.47L152.6 26.626 150.632 45.1H136.1L134.957.354h7.616l.635 37h.824l4.76-37h7.552l4.888 37h.762z" fill="#81b3d3"/><path d="M380.74 213.95l25.432-73.974h25.2l25.664 73.974H436.83l-3.716-13.355h-28.568l-3.832 13.355zm35.652-52.142l-7.548 24.503h20.1l-7.55-24.503a200.681 200.681 0 0 1-1.161-3.6 85.695 85.695 0 0 1-.813-3.832 11.34 11.34 0 0 1-.348-1.278l-.233-1.277c-.077.387-.193.813-.348 1.277l-.232 1.278c-.078.155-.116.3-.116.464 0 .078-.04.194-.117.35a42.821 42.821 0 0 1-.812 3.367 49.862 49.862 0 0 1-.813 3.252zm-117.68 52.142v-73.974h19.5l27.87 37.974a37.228 37.228 0 0 1 1.974 3.484 53.506 53.506 0 0 1 1.974 3.6l1.394 3.02 1.393 2.902a23.097 23.097 0 0 0-.348-2.438l-.232-2.44a91.7 91.7 0 0 1-.349-4.761 99.816 99.816 0 0 1-.116-4.994v-36.348h19.393v73.974h-19.393l-28.103-38.206c-.774-.93-1.5-2.013-2.206-3.25a65.83 65.83 0 0 1-1.974-4.065 103.301 103.301 0 0 0-1.394-2.903 50.987 50.987 0 0 0-1.161-2.787l.93 7.316.348 7.432v36.464zm-88-54.984c3.56-6.58 8.516-11.613 14.864-15.097s12.968-5.226 19.858-5.226a34.15 34.15 0 0 1 2.787.116l2.903.233a41.113 41.113 0 0 1 8.478 2.09 39.444 39.444 0 0 1 8.129 3.948c5.497 3.562 9.755 8.323 12.774 14.284 3.02 5.884 4.53 12.04 4.53 18.464a27.56 27.56 0 0 1-.116 2.44c0 .774-.078 1.548-.233 2.323a27.068 27.068 0 0 1-.929 4.877 36.028 36.028 0 0 1-1.51 4.645c-3.25 7.5-8.322 13.355-15.212 17.535-6.9 4.103-14.13 6.155-21.716 6.155a11.48 11.48 0 0 1-1.626-.116h-1.5a46.946 46.946 0 0 1-7.897-1.394 37.927 37.927 0 0 1-7.432-2.903c-6.503-3.406-11.613-8.245-15.33-14.516-3.716-6.348-5.574-12.93-5.574-19.742 0-1.006.04-2.013.116-3.02s.232-2.05.465-3.135a43.647 43.647 0 0 1 1.625-6.039 36.922 36.922 0 0 1 2.555-5.922zm52.84 26.593a22.28 22.28 0 0 0 .58-2.44 14.66 14.66 0 0 0 .465-2.555c.078-.54.116-1.083.116-1.625a10.62 10.62 0 0 0 .116-1.5 8.46 8.46 0 0 0-.116-1.394v-1.393c-.387-3.33-1.393-6.542-3.02-9.64s-3.87-5.497-6.735-7.2a30.79 30.79 0 0 0-2.322-1.045c-.774-.3-1.55-.58-2.323-.813a24.028 24.028 0 0 0-2.322-.348 11.816 11.816 0 0 0-2.323-.233c-3.948 0-7.587 1.24-10.916 3.717s-5.652 5.767-6.968 9.87l-.232.465v.464a18.358 18.358 0 0 0-.58 2.207l-.465 2.206-.232 1.626v2.44c0 .232.038.503.116.813.232 4.103 1.47 8.013 3.716 11.73 2.322 3.638 5.497 6.038 9.522 7.2l1.394.464 1.5.232 1.393.233h1.394c4.103 0 7.78-1.2 11.032-3.6 3.33-2.478 5.73-5.768 7.2-9.87zm-82.156 21.423a33.42 33.42 0 0 1-11.845 5.1 82.76 82.76 0 0 1-12.9 1.742 59.574 59.574 0 0 1-3.716.116H129.13v-73.974h25.084a53.74 53.74 0 0 1 3.6.116 72.27 72.27 0 0 1 12.3 1.742 30.348 30.348 0 0 1 11.264 5.11c4.335 3.02 7.703 7.006 10.103 11.96s3.755 10.064 4.064 15.33c.078.464.117.928.117 1.393v2.903c-.233 5.497-1.55 10.8-3.95 15.9s-5.845 9.3-10.335 12.542zm-32.4-9.64c.232 0 .465.04.697.116h.813c.3 0 .58.04.813.117h3.135l2.44-.233a30.62 30.62 0 0 0 5.922-1.045c1.936-.542 3.678-1.355 5.226-2.44 2.478-1.78 4.297-4.18 5.458-7.2a25.722 25.722 0 0 0 1.858-9.638v-.93a3.78 3.78 0 0 0-.116-.928 23.144 23.144 0 0 0-2.09-8.478c-1.24-2.787-2.942-4.993-5.1-6.62a13.34 13.34 0 0 0-5.458-2.67 30.682 30.682 0 0 0-6.039-.813h-7.548zm-79.9 16.606v-73.974h45.406v16.142H88.934v12.9h24.04V184.8h-24.04v12.542h25.548v16.606zM9.673 190.115c.077.078.116.155.116.233.078 0 .155.038.232.116 2.1 2.322 4.452 4.5 7.084 6.503 2.632 1.935 5.652 2.98 9.058 3.135.078 0 .155.04.232.117h.35c.077 0 .155.038.232.116h1.277a22.51 22.51 0 0 0 1.046-.233 9.692 9.692 0 0 0 3.484-1.393c1.16-.697 2.05-1.55 2.67-2.555l.233-.465.232-.464a14.82 14.82 0 0 0 .35-1.5c.08-.455.116-.9.116-1.277 0-2.1-.93-3.832-2.787-5.226a19.948 19.948 0 0 0-5.807-3.368 16.805 16.805 0 0 0-2.439-.696 31.442 31.442 0 0 0-2.206-.581h-.232c-.078-.077-.155-.116-.232-.116a37.998 37.998 0 0 1-10.684-4.413c-3.33-2.1-5.613-5.07-6.852-8.942a100.03 100.03 0 0 1-.697-2.439 27.873 27.873 0 0 1-.348-2.67 3.412 3.412 0 0 1-.116-.814v-2.787a15.55 15.55 0 0 1 .348-1.858 25.49 25.49 0 0 1 1.161-4.645c.542-1.548 1.24-2.942 2.1-4.18 2.478-4.104 5.652-7.046 9.523-8.826 3.95-1.78 8.052-2.67 12.3-2.67 1.007 0 2.013.077 3.02.232a46.31 46.31 0 0 1 3.251.348 39.742 39.742 0 0 1 8.245 2.323c2.787 1.084 5.342 2.36 7.665 3.832l-6.387 14.284a44.641 44.641 0 0 0-6.62-4.064c-2.322-1.162-4.838-1.742-7.548-1.742h-.93c-1.78.232-3.444 1.045-4.993 2.438-1.548 1.316-2.322 2.75-2.322 4.297v.697c.077.232.193.464.348.697a4 4 0 0 0 .813 1.5 9.94 9.94 0 0 0 1.277 1.277c.852.697 2.1 1.355 3.717 1.974l5.1 1.626 4.296 1.16c1.394.3 2.555.62 3.484.93 4.335 1.548 7.587 4.14 9.755 7.78 2.167 3.56 3.3 7.355 3.367 11.38v.58c0 .465-.038.93-.116 1.394v1.277c-.464 4.026-1.78 7.858-3.948 11.497-2.1 3.64-4.916 6.426-8.477 8.362a37.058 37.058 0 0 1-4.065 1.625 82.48 82.48 0 0 1-4.18 1.046 26.86 26.86 0 0 1-3.484.464 25.487 25.487 0 0 1-3.368.232H26.04c-4.645-.154-9.212-1.16-13.703-3.02-4.5-1.935-8.477-4.5-11.96-7.664zm341.58 147.12c0-.294.057-.586.17-.877a2.42 2.42 0 0 1 .503-.792 2.59 2.59 0 0 1 .827-.572c.325-.146.7-.22 1.095-.22a3.43 3.43 0 0 1 1.298.252c.414.17.77.4 1.06.727.247.292.437.64.572 1.044a4.01 4.01 0 0 1 .202 1.28c0 .85-.15 1.64-.455 2.358a5.98 5.98 0 0 1-1.296 1.92 5.745 5.745 0 0 1-.843.691 9.289 9.289 0 0 1-.893.54c-.28.144-.52.264-.726.352a8.345 8.345 0 0 0-.37.17l-1.35-2c.25-.1.524-.207.828-.352s.6-.326.857-.54a2.93 2.93 0 0 0 .676-.76 2.15 2.15 0 0 0 .304-1.01 2.79 2.79 0 0 1-1.72-.574c-.495-.374-.74-.93-.74-1.65m7.837 0a2.47 2.47 0 0 1 .167-.877c.113-.293.282-.556.506-.792s.5-.428.825-.572.7-.22 1.096-.22a3.42 3.42 0 0 1 1.297.252 2.9 2.9 0 0 1 1.061.727c.25.292.44.64.574 1.044s.202.83.202 1.28a6 6 0 0 1-.455 2.358 6.013 6.013 0 0 1-1.298 1.92 5.66 5.66 0 0 1-.845.691 8.11 8.11 0 0 1-.893.54 11.61 11.61 0 0 1-.725.352 9.727 9.727 0 0 0-.37.17l-1.348-2c.247-.1.52-.207.825-.352a4.19 4.19 0 0 0 .86-.54 2.91 2.91 0 0 0 .673-.76 2.12 2.12 0 0 0 .304-1 2.72 2.72 0 0 1-1.719-.574c-.5-.38-.737-.93-.737-1.648m-264.56-58.7a2.41 2.41 0 0 1-.17.875 2.38 2.38 0 0 1-.503.793 2.642 2.642 0 0 1-1.923.792 3.42 3.42 0 0 1-1.297-.252 2.924 2.924 0 0 1-1.06-.725 3.122 3.122 0 0 1-.573-1.045 4.03 4.03 0 0 1-.202-1.28c0-.852.152-1.64.455-2.36a5.996 5.996 0 0 1 1.297-1.92 5.51 5.51 0 0 1 .844-.69 8.79 8.79 0 0 1 .893-.54c.28-.144.522-.263.725-.352l.37-.167 1.348 1.988a9.538 9.538 0 0 0-.825.352c-.303.146-.6.325-.86.54s-.493.466-.673.758-.28.63-.303 1.013a2.73 2.73 0 0 1 1.718.572c.492.38.74.93.74 1.65m-7.837 0a2.456 2.456 0 0 1-.673 1.67 2.602 2.602 0 0 1-.826.571c-.326.146-.692.22-1.096.22a3.41 3.41 0 0 1-1.298-.252 2.935 2.935 0 0 1-1.06-.726 3.09 3.09 0 0 1-.573-1.045 4.001 4.001 0 0 1-.202-1.28c0-.852.15-1.64.455-2.36a5.98 5.98 0 0 1 1.297-1.92 5.6 5.6 0 0 1 .843-.69 9.45 9.45 0 0 1 .893-.54 12.34 12.34 0 0 1 .724-.35l.372-.17 1.347 1.988c-.248.1-.522.208-.826.353a4.19 4.19 0 0 0-.857.538 2.95 2.95 0 0 0-.676.759 2.13 2.13 0 0 0-.302 1.012c.65 0 1.224.2 1.718.573s.74.93.74 1.65m245.35 56.874h3.815L347.7 314.76h-3.776zm-.18 1.488c-1.236 0-2.182.98-2.182 2.218a2.14 2.14 0 0 0 2.181 2.18c1.232 0 2.217-.944 2.217-2.18s-.985-2.218-2.217-2.218m-26.352-5.527l1.1-1.888c4.36-6.068 7.34-4.397 5.994-2.107l-1.815 3.124c-1.13 1.962-4.434 3.342-5.27.87m25.092 2.98a2.39 2.39 0 0 0-1.417-1.307l-.255.292a23.583 23.583 0 0 1-4.542 4.104c1.198-3.596.943-9.118 3.268-13.95l-2.835-1.527c-1.56 2.143-4.976 7.084-8.392 11.08.006.01.016.018.02.025-.014-.006-.03-.02-.045-.025l-.253.292c-2.727 3.16-5.377 5.666-7.05 5.666-.834 0-1.634-.836-1.634-2.543v-1.562c2.652.327 5.45-1.418 7.23-4.504l1.016-1.743c3.522-6.03-2.217-8.03-6.068-4.504l5.375-9.337h-3.78l-10.775 18.695a2.991 2.991 0 0 0-.689-.457l-.256.292c-2.723 3.16-6.2 5.666-8.863 5.666-2.325 0-3.705-1.453-1.96-4.504l3.884-6.757c2.18-3.742 6.032-3.124 3.778.8l-.544.944h3.1l.545-.944c2.034-3.488.07-6.104-3.015-6.104-3.05 0-5.487 1.6-7.085 4.36l-3.718 6.38c-.078-.046-.16-.1-.233-.132l-.255.292c-2.724 3.16-5.375 5.666-7.047 5.666-.836 0-1.306-.58-.436-2.07l8.066-14.133h-3.78l-6.72 11.734c-2.873 2.615-5.085 4.068-5.814 3.742-.944-.4 0-1.816.473-2.615l7.374-12.86h-3.778l-7.338 12.695c-.816.743-2.402 1.407-3.2 1.944 1.2-3.596.944-9.118 3.27-13.95l-2.832-1.527c-1.563 2.143-10.283 13.698-13.698 17.693.325.472.872.945 1.416 1.308 2.143-2.47 9.338-11.734 10.682-13.514-1.5 3.923-.7 10.972-4.288 10.972-1.27 0-1.78-1.382-1.78-1.382l-2.36 1.236s.7 3.05 4.14 3.05c.365 0 .692-.036 1.056-.072.035 0 .07-.036.106-.036 1.92-.254 4.578-1.138 6.36-2.37-.012 1.537.916 2.478 2.5 2.478 2.068 0 4.395-1.9 6.2-3.632-.36 2.035.835 3.632 3.235 3.632 2.346 0 4.96-1.886 7.437-4.363.034 2.5 1.968 4.363 5.126 4.363 3.066 0 6.114-1.713 8.74-4.016l-2.105 3.654h3.816l4.323-7.52v3.014c0 3.232.617 4.868 3.67 4.868 3.123 0 6.72-3.34 9.845-6.975-.006-.01-.018-.02-.02-.034.014.012.03.023.047.034 2.144-2.47 4.034-5.123 5.375-6.904-1.488 3.924-.688 10.973-4.287 10.973-1.27 0-1.78-1.382-1.78-1.382l-2.362 1.236s.7 3.05 4.142 3.05c.362 0 .688-.036 1.056-.072.034 0 .07-.035.105-.035 3.853-.512 7.668-3.562 10.5-6.87M216 333.25h-.183c-1.235 0-2.216 1.017-2.216 2.255a2.47 2.47 0 0 0 .363 1.27l-.037.073c-1.78 3.05-6.103 2.47-3.85-1.454l2.87-4.977 1.816-3.088c2.653-4.505 6.285-2.725 3.997 1.2zm-25.43 14.13c-.8 1.417-2.072 1.2-2.072.184 0-.98.9-2.106 3.815-3.234zm-28.742-13.73c-2.288 3.595-4.54 5.303-6.103 5.303-.835 0-1.307-.58-.436-2.07l5.267-9.193c2.035-3.522 6.067-2.615 4.213.8zm-12.054-14.75c1.126-1.927 2.362-2.762 3.415-2.762 1.418 0 2.07.944 2.07 2.325 0 3.524-4.364 10.833-10.172 9.88h-.763zm92.777 14.094l-.254.292c-2.722 3.16-5.375 5.667-7.047 5.667-.836 0-1.307-.58-.436-2.072l5.45-9.553c1.636-2.87.07-4.94-2.035-4.94-1.636 0-3.34.87-5.23 2.833l1.417-2.47h-3.78l-6.088 10.533a2.769 2.769 0 0 0-.482-.29l-.255.292c-1.706 1.852-3.814 2.762-5.703 2.8l3.56-6.14c2.288-3.962.182-7.7-3.38-7.7-2.907 0-5.158 1.162-7.34 4.94l-1.852 3.233-1.62 2.77a2.49 2.49 0 0 0-.342-.19l-.254.3c-3.125 3.595-5.777 5.92-8.755 7.195l10.355-17.73h-3.78l-6.683 11.626c-2.907 2.687-5.16 4.176-5.886 3.85-.944-.398 0-1.816.472-2.616l7.375-12.86H196.2l-6.028 10.43a2.484 2.484 0 0 0-.331-.187l-.254.292c-2.725 3.16-5.376 5.667-7.048 5.667-.835 0-1.307-.58-.436-2.072l5.45-9.553c1.635-2.87.073-4.942-2.034-4.942-1.635 0-3.343.872-5.23 2.834l1.417-2.47h-3.78l-6.038 10.445a2.63 2.63 0 0 0-.359-.202l-.254.292c-2.723 3.16-5.375 5.667-7.048 5.667-.835 0-1.307-.58-.436-2.072l6.104-10.68h-2.143c.145-1.598-1.5-3.814-3.96-3.814-2.033 0-4.87 1.597-6.465 4.36l-3.903 6.736c-.26-.233-.557-.415-.828-.488l-.254.292c-2.725 3.16-4.817 5.667-8.56 5.667-2.58 0-4.14-2.58-1.9-6.43l1.055-1.852c.7.107 1.38.184 2.142.184 4.033 0 8.6-2.072 11.6-7.267 1.053-1.853 1.526-3.596 1.526-5.086 0-3.415-2.217-5.63-5.013-5.63-2.07 0-4.542 1.454-6.248 4.432l-5.886 10.137c-2.216-1.163-3.38-3.27-3.38-5.378 0-1.743.8-3.487 2.434-4.757l-1.235-2.218c-2.7 1.928-3.887 4.504-3.887 7.05 0 3.013 1.708 5.92 4.758 7.518l-1.125 1.964c-2.65 4.578-1.1 9.662 4.25 9.662 4.226 0 6.076-1.88 8.68-4.355-.823 2.374.373 4.355 3.048 4.355 1.526 0 3.415-.98 5.232-2.47.18 1.454 1.344 2.47 3.268 2.47 1.8 0 3.778-1.124 5.72-2.773l-1.392 2.4h3.814l5.776-10.063c5.777-7.23 8.357-6.287 6.722-3.488l-4.904 8.534c-1.598 2.8-.472 5.376 2.58 5.376 2.033 0 4.266-1.42 6.44-3.4-.453 2.078.506 3.4 2.388 3.4 1.817 0 3.886-1.526 5.595-3.05l-2.07 3.56c-5.123 1.524-8.32 3.633-8.32 6.465 0 3.633 5.56 4.397 8.282-.253l2.906-4.978c3.16-.994 6.273-2.953 9.525-6.172-.52 5.277 6.508 6.48 10.746 1.122h.835c1.38 0 3.248-.52 4.934-1.45l-2.54 4.394h3.815l5.776-10.063c5.777-7.23 8.357-6.287 6.72-3.5l-4.904 8.538c-1.598 2.8-.473 5.376 2.58 5.376 3.126 0 6.72-3.342 9.846-6.975-.255-.5-.908-1.093-1.418-1.3m118.63-35.573c-2.3 3.74-4.615 5.52-6.212 5.52-.835 0-1.307-.58-.437-2.07l5.267-9.193c2.035-3.524 6.067-2.615 4.214.8h.035zm-36.187.22c-2.3 3.594-4.543 5.302-6.104 5.302-.836 0-1.307-.58-.437-2.07l5.268-9.193c2.034-3.524 6.066-2.615 4.214.8zM285.1 311.37c-.797 1.417-2.07 1.2-2.07.184 0-.98.872-2.107 3.78-3.234zm8.028-28.48c1.127-1.926 2.362-2.76 3.417-2.76 5.994 0 1.525 14.435-8.102 12.205h-.763zm77.664 14.097l-.255.3c-2.72 3.16-5.374 5.667-7.047 5.667-.835 0-1.307-.58-.437-2.07l12.8-22.124h-3.78l-5.557 9.6c-.654-1.054-1.9-1.962-3.453-1.962-2.035 0-4.867 1.6-6.466 4.36l-3.698 6.38c-.08-.046-.16-.1-.234-.132l-.255.292c-2.723 3.16-5 5.666-6.672 5.666-.837 0-1.307-.58-.438-2.07l5.45-9.555c1.637-2.87.072-4.942-2.034-4.942-1.636 0-3.34.87-5.232 2.835l1.417-2.47h-3.78l-6.037 10.447a2.687 2.687 0 0 0-.36-.203l-.256.292c-2.723 3.16-5.374 5.666-7.046 5.666-.835 0-1.306-.58-.436-2.07l6.103-10.682h-2.144c.146-1.598-1.488-3.815-3.96-3.815-2.035 0-4.87 1.6-6.468 4.358l-3.652 6.306-.206.234c-2.722 3.16-5.75 5.665-7.42 5.665-.837 0-1.307-.58-.437-2.07l3.778-6.6c1.307-2.3.7-3.633-.545-5.123L309.9 286.6c-.545-.7-.545-1.453.218-2.18l-1.962-2.143c-2.144 1.927-2.325 4.07-.982 5.813l.33.436c-1.672 2.362-3.924 5.56-6.397 8.465a3.81 3.81 0 0 0 .258.32c-3.113 3.58-5.76 5.895-8.73 7.162l4.795-8.2h-3.778l-.4.655c-1.998 3.524-4.288 6.03-7.23 6.03-2.58 0-3.05-2.58-.8-6.43l1.055-1.852a13.6 13.6 0 0 0 2.142.181c13.443 0 19.946-17.982 8.104-17.982-2.072 0-4.544 1.454-6.25 4.432l-5.885 10.135c-2.216-1.16-3.378-3.268-3.378-5.375 0-1.743.8-3.488 2.432-4.758l-1.233-2.217c-2.7 1.926-3.888 4.504-3.888 7.047 0 3.016 1.7 5.922 4.76 7.52l-1.127 1.963c-2.652 4.578-2.18 9.663 3.162 9.663 1.598 0 2.94-.472 4.105-1.2l-.983 1.7c-5.12 1.56-8.282 3.63-8.282 6.465 0 3.632 5.56 4.396 8.282-.254l2.907-4.977c3.925-1.235 7.776-3.923 11.918-8.72a2.222 2.222 0 0 0-.236-.355c1.678-1.97 3.102-3.874 5.95-7.746l.507.62c.473.616.654 1.38.218 2.144l-3.997 6.937c-1.6 2.795-.472 5.374 2.58 5.374 1.9 0 4.348-1.24 6.385-3.024-.044 1.738 1.144 3.024 3.3 3.024 1.525 0 3.415-.98 5.23-2.47.183 1.454 1.347 2.47 3.27 2.47 1.8 0 3.777-1.125 5.72-2.774l-1.392 2.412h3.813l5.777-10.065c5.777-7.23 8.357-6.284 6.72-3.487l-4.903 8.538c-1.597 2.798-.473 5.376 2.578 5.376 2 0 3.836-1.384 5.982-3.333-.2 1.893 1.004 3.333 3.282 3.333 1.525 0 3.414-.98 5.232-2.47.182 1.455 1.345 2.47 3.27 2.47 3.125 0 6.72-3.34 9.845-6.976-.256-.504-.9-1.085-1.42-1.302m-112.28-5.305c2.18-3.742 6.033-3.125 3.78.8l-.545.944c-1.817 3.1-4.252 3.015-5.668 2.507zm-3.05 13.587c4.287 0 8.54-3.34 11.662-6.975a3.27 3.27 0 0 0-1.417-1.308l-.253.292c-2.726 3.16-6.213 5.666-8.867 5.666-2.325 0-3.705-1.453-1.962-4.505l.363-.653c2.435 1.016 7.012.545 9.846-4.36l.545-.944c2.035-3.5.073-6.104-3.016-6.104-3.05 0-5.484 1.598-7.083 4.36l-3.68 6.313c-.038-.02-.076-.048-.112-.064l-.255.292c-2.724 3.16-5.375 5.666-7.047 5.666-.836 0-1.306-.58-.437-2.07l5.45-9.555c1.635-2.87.072-4.942-2.036-4.942-1.635 0-3.38.9-5.266 2.87l6.03-10.5h-3.778l-10.656 18.5a2.471 2.471 0 0 0-.432-.252l-.255.3c-2.725 3.16-5.376 5.667-7.048 5.667-.835 0-1.307-.58-.437-2.07l8.102-14.134h3.1l1.1-1.817h-3.125l3.56-6.175h-3.778l-3.56 6.175h-3.415l-1.1 1.817h3.45l-7.593 13.153c-1.598 2.8-.472 5.377 2.58 5.377 1.878 0 3.926-1.213 5.94-2.964l-1.5 2.6h3.815l5.74-9.992c5.813-7.302 8.393-6.357 6.758-3.56l-4.905 8.538c-1.598 2.798-.472 5.376 2.58 5.376 2.296 0 4.846-1.805 7.276-4.205.1 2.43 2.033 4.207 5.125 4.207M127.98 291.68c2.18-3.742 6.03-3.125 3.776.8l-.544.944c-1.815 3.088-4.25 3.015-5.667 2.506zm23.12 9.2l5.268-9.2c2.034-3.526 6.067-2.617 4.213.8l-2.942 5.16c-2.288 3.595-4.543 5.304-6.104 5.304-.834 0-1.307-.58-.435-2.07m53.984-9.192c2.18-3.742 6.03-3.125 3.776.8l-.545.944c-1.815 3.088-4.25 3.014-5.666 2.506zm-57.808 9.526c-.627 2.24.57 4.06 3.134 4.06 1.525 0 3.415-.98 5.23-2.47.183 1.453 1.346 2.47 3.27 2.47 2.013 0 4.218-1.4 6.37-3.346-.418 2.042.54 3.346 2.4 3.346 2.073 0 4.398-1.9 6.213-3.634-.364 2.036.837 3.634 3.234 3.634 3.125 0 6.72-3.342 9.845-6.976-.025-.05-.068-.1-.1-.15 2.088-2.43 3.93-5.007 5.248-6.75-1.5 3.922-.7 10.972-4.288 10.972-1.27 0-1.78-1.382-1.78-1.382l-2.363 1.235s.7 3.052 4.142 3.052c.363 0 .7-.037 1.054-.073.037 0 .072-.035.108-.035 2.776-.367 5.53-2.056 7.913-4.2.058 2.486 1.986 4.317 5.125 4.317 4.287 0 8.538-3.34 11.662-6.976-.254-.5-.908-1.1-1.416-1.308l-.254.292c-2.725 3.16-6.213 5.667-8.863 5.667-2.326 0-3.707-1.454-1.963-4.505l.364-.654c2.432 1.016 7 .545 9.845-4.36l.545-.943c2.034-3.5.072-6.104-3.015-6.104-3.05 0-5.487 1.598-7.083 4.358l-3.67 6.294c-.035-.012-.07-.037-.104-.046l-.254.3a23.589 23.589 0 0 1-4.542 4.106c1.2-3.596.945-9.117 3.27-13.95l-2.833-1.526c-1.562 2.143-4.977 7.084-8.393 11.08.033.046.074.1.1.138l-.135.153c-2.724 3.16-5.376 5.667-7.048 5.667-.835 0-1.307-.58-.436-2.07l8.065-14.135h-3.78l-6.72 11.734c-2.87 2.616-5.085 4.07-5.814 3.742-.943-.398 0-1.815.474-2.615l7.373-12.86h-3.778l-6.013 10.405c-.098-.06-.195-.122-.287-.16l-.254.3c-2.725 3.16-5.376 5.667-7.048 5.667-.835 0-1.307-.58-.436-2.07l6.103-10.682h-2.144c.146-1.598-1.488-3.816-3.96-3.816-2.034 0-4.868 1.6-6.466 4.36l-3.83 6.612a2.803 2.803 0 0 0-.576-.363l-.254.3c-2.724 3.16-5.858 5.667-8.5 5.667-2.324 0-3.706-1.453-1.963-4.504l3.887-6.756c2.18-3.742 6.03-3.125 3.777.798l-.545.945h3.1l.544-.945c2.034-3.487.073-6.104-3.014-6.104-3.052 0-5.134 1.6-6.73 4.36l-3.756 6.443a2.424 2.424 0 0 0-.347-.194l-.254.3c-2.724 3.16-5.947 5.667-8.598 5.667-2.326 0-3.707-1.453-1.963-4.504l.363-.654c2.434 1.018 7.012.545 9.846-4.358l.545-.946c2.034-3.486.072-6.103-3.016-6.103-3.05 0-5.486 1.598-7.083 4.36l-3.96 6.792c-2.363 4.033-.327 7.738 4.14 7.738 3.33 0 6.013-2.015 8.788-4.617-.098 2.637 1.858 4.617 5.12 4.617 3.088.006 5.8-1.728 8.44-4.054m-36.872-13.96l3.05-5.23c2.76-4.757 6.285-1.962 4.395 1.6-1.45 2.724-3.595 3.56-7.446 3.633m-4.068 17.22c-2.253 0-4.033-.508-5.45-1.306.654-.764 1.307-1.7 1.9-2.7l6.356-11.008 1.017.108c8.866 1.855 5.34 14.895-3.813 14.895m9.336-15.475c7.63-2.58 8.2-12.135.7-12.135-2.07 0-4.54 1.453-6.248 4.432l-10.2 17.55a14.618 14.618 0 0 1-1.452 2.141c-2.616-3.595-1.853-8.97 1.816-11.334l-1.527-1.926c-7.92 5.05-5.594 19.617 7.63 19.617 11.3.002 16.53-13.547 9.264-18.38" fill="#fff"/></svg>